# xmcd
#
# Track frame offsets: 
#        150
#        13033
#        26321
#        37318
#        46191
#        56410
#        67073
#        82061
#        97331
#        110017
#        122946
#        139561
#        150993
#        162965
#        176182
#        188095
#
# Disc length: 2720 seconds
#
# Revision: 0
# Processed by: cddbd v1.5.2PL0 Copyright (c) Steve Scherf et al.
# Submitted via: ExactAudioCopyFreeDBPlugin 1.0
#
DISCID=de0a9e10
DTITLE=Charles Trenet - Chanson Celebration Collection La Mer CD 08 Où
DTITLE=vas-tu chaque nuit?
DYEAR=1954
DGENRE=Chanson
TTITLE0=Où vas-tu chaque nuit?
TTITLE1=Quand un bâteau blanc
TTITLE2=Madame la pluie
TTITLE3=Les olivettes
TTITLE4=Paule sur mes èpaules
TTITLE5=Marie-Thérèse
TTITLE6=Vous qui passez sans me voir
TTITLE7=Coin de rue
TTITLE8=Mon amour est parti pour longtemps
TTITLE9=Fermier Isidore
TTITLE10=Moi, j'aime le Music Hall
TTITLE11=À la porte du garage
TTITLE12=Les coupeurs de bois
TTITLE13=Les chansons de la nuit
TTITLE14=Route Nationale 7
TTITLE15=Quand vous entendrez mam'zelle
EXTD=
EXTT0=
EXTT1=
EXTT2=
EXTT3=
EXTT4=
EXTT5=
EXTT6=
EXTT7=
EXTT8=
EXTT9=
EXTT10=
EXTT11=
EXTT12=
EXTT13=
EXTT14=
EXTT15=
PLAYORDER=
